<mxfile host="app.diagrams.net" modified="2023-09-07T17:15:21.335Z" agent="Mozilla/5.0 (Windows NT 10.0; Win64; x64; rv:109.0) Gecko/20100101 Firefox/117.0" version="21.3.3" etag="el_989K7pmQf4TtIIgUe" type="github">
  <diagram name="Страница 1" id="OWC0lmn7g0es4ZwRftjZ">
    <mxGraphModel>
      <root>
        <mxCell id="0" />
        <mxCell id="1" parent="0" />
      </root>
    </mxGraphModel>
  </diagram>
</mxfile>
